<svg width="20" height="21" viewBox="0 0 20 21" fill="none" xmlns="http://www.w3.org/2000/svg">
  <path fill-rule="evenodd" clip-rule="evenodd" d="M15.7525 10.0837H5.91555L8.92758 6.46898C9.22107 6.11745 9.17299 5.59431 8.82146 5.30164C8.4691 5.00815 7.94679 5.05624 7.65412 5.40777L3.50875 10.3822C3.47642 10.4212 3.45984 10.4668 3.43579 10.5099C3.4159 10.5447 3.39185 10.5746 3.37693 10.6127C3.33962 10.708 3.31724 10.8084 3.31724 10.9095C3.31724 10.9103 3.31641 10.912 3.31641 10.9128C3.31641 10.9136 3.31724 10.9153 3.31724 10.9161C3.31724 11.0173 3.33962 11.1176 3.37693 11.2129C3.39185 11.2511 3.4159 11.2809 3.43579 11.3158C3.45984 11.3589 3.47642 11.4045 3.50875 11.4434L7.65412 16.4179C7.81828 16.6144 8.05374 16.7163 8.29085 16.7163C8.47822 16.7163 8.66642 16.6533 8.82146 16.524C9.17299 16.2313 9.22107 15.7082 8.92758 15.3567L5.91555 11.7419H15.7525C16.2102 11.7419 16.5816 11.3705 16.5816 10.9128C16.5816 10.4552 16.2102 10.0837 15.7525 10.0837Z" fill="black"/>
</svg>
