<svg width="21" height="21" viewBox="0 0 21 21" fill="none" xmlns="http://www.w3.org/2000/svg">
  <path fill-rule="evenodd" clip-rule="evenodd" d="M4.63376 11.7417H14.4707L11.4587 15.3565C11.1652 15.708 11.2133 16.2312 11.5648 16.5238C11.9172 16.8173 12.4395 16.7692 12.733 16.4177L16.8784 11.4433C16.9107 11.4043 16.9264 11.3587 16.9505 11.3156C16.9704 11.2808 16.9944 11.2509 17.0094 11.2128C17.0467 11.1174 17.069 11.0171 17.069 10.916C17.069 10.9151 17.0699 10.9135 17.0699 10.9127C17.0699 10.9118 17.069 10.9102 17.069 10.9093C17.069 10.8082 17.0467 10.7079 17.0094 10.6125C16.9944 10.5744 16.9704 10.5445 16.9505 10.5097C16.9264 10.4666 16.9107 10.421 16.8784 10.382L12.733 5.4076C12.568 5.21111 12.3325 5.10913 12.0954 5.10913C11.9081 5.10913 11.7199 5.17214 11.5648 5.30148C11.2133 5.59414 11.1652 6.11729 11.4587 6.46881L14.4707 10.0836H4.63376C4.17611 10.0836 3.80469 10.455 3.80469 10.9127C3.80469 11.3703 4.17611 11.7417 4.63376 11.7417Z" fill="black"/>
</svg>
