<svg width="20" height="20" viewBox="0 0 20 20" fill="none" xmlns="http://www.w3.org/2000/svg">
  <path d="M5.7012 18.2051H14.3002C16.5648 18.2051 17.4674 16.8184 17.574 15.1281L18.0007 8.3507C18.1156 6.57839 16.7043 5.07685 14.9238 5.07685C14.4233 5.07685 13.9638 4.78967 13.734 4.3466L13.1433 3.15685C12.7658 2.41018 11.7812 1.7948 10.9443 1.7948H9.0653C8.22018 1.7948 7.23556 2.41018 6.85812 3.15685L6.26736 4.3466C6.03761 4.78967 5.57812 5.07685 5.07761 5.07685C3.2971 5.07685 1.88582 6.57839 2.00069 8.3507L2.42736 15.1281C2.52582 16.8184 3.43659 18.2051 5.7012 18.2051Z" stroke="white" stroke-width="1.5" stroke-linecap="round" stroke-linejoin="round"/>
  <path d="M8.76953 6.7179H11.2311" stroke="white" stroke-width="1.5" stroke-linecap="round" stroke-linejoin="round"/>
  <path d="M10.0007 14.9231C11.4694 14.9231 12.6673 13.7251 12.6673 12.2564C12.6673 10.7877 11.4694 9.58972 10.0007 9.58972C8.53193 9.58972 7.33398 10.7877 7.33398 12.2564C7.33398 13.7251 8.53193 14.9231 10.0007 14.9231Z" stroke="white" stroke-width="1.5" stroke-linecap="round" stroke-linejoin="round"/>
</svg>
