<svg width="84" height="61" viewBox="0 0 84 61" fill="none" xmlns="http://www.w3.org/2000/svg">
    <path d="M75.8536 1.3318C77.5879 0.426353 79.7428 1.09367 80.4979 2.89861C82.5444 7.7906 83.6443 13.0384 83.7266 18.3622C83.8273 24.8694 82.405 31.3099 79.5733 37.1694C76.7417 43.0288 72.5792 48.1448 67.4184 52.1087C62.2575 56.0725 56.2413 58.7744 49.8502 59.9985C43.4592 61.2227 36.8705 60.9351 30.6103 59.1588C24.3502 57.3825 18.5921 54.1667 13.796 49.7682C8.99985 45.3698 5.29865 39.9106 2.98799 33.8267C1.09754 28.8492 0.180715 23.5664 0.274969 18.2644C0.309746 16.3081 2.0657 14.8917 4.01175 15.0922V15.0922C5.95777 15.2928 7.35373 17.0352 7.35291 18.9918C7.35113 23.1913 8.11278 27.3665 9.61082 31.3108C11.5292 36.3619 14.6021 40.8943 18.584 44.5461C22.5659 48.1978 27.3465 50.8677 32.5439 52.3425C37.7413 53.8172 43.2115 54.056 48.5176 53.0397C53.8236 52.0233 58.8185 49.7801 63.1032 46.4892C67.388 43.1983 70.8438 38.9508 73.1947 34.0861C75.5457 29.2213 76.7265 23.8742 76.6429 18.4717C76.5777 14.253 75.7429 10.0918 74.1896 6.19006C73.466 4.37227 74.1194 2.23726 75.8536 1.3318V1.3318Z"
          fill="#24AFB6"/>
</svg>
