<svg width="77" height="84" viewBox="0 0 77 84" fill="none" xmlns="http://www.w3.org/2000/svg">
    <path d="M35.0105 3.8196C35.0105 1.86338 36.5992 0.261938 38.5484 0.427708C44.6015 0.942501 50.4844 2.77373 55.7787 5.80991C62.0997 9.43492 67.3612 14.6512 71.0401 20.9401C74.7189 27.2289 76.6868 34.3711 76.748 41.6562C76.8092 48.9413 74.9616 56.1155 71.389 62.4652C67.8163 68.8149 62.6431 74.1189 56.384 77.8496C50.1248 81.5802 42.9977 83.6076 35.7117 83.7299C28.4256 83.8523 21.2344 82.0655 14.8534 78.5472C9.50946 75.6006 4.88969 71.5257 1.30657 66.6218C0.152091 65.0418 0.695921 62.8517 2.36837 61.8358V61.8358C4.04032 60.8201 6.20516 61.3652 7.38648 62.9245C10.3085 66.7815 14.0147 69.9947 18.2754 72.3439C23.5731 75.265 29.5435 76.7485 35.5926 76.6468C41.6418 76.5452 47.5589 74.8621 52.7555 71.7647C57.9521 68.6674 62.2471 64.2639 65.2132 58.9921C68.1793 53.7203 69.7133 47.764 69.6625 41.7157C69.6116 35.6673 67.9778 29.7376 64.9235 24.5164C61.8692 19.2952 57.5009 14.9644 52.253 11.9548C48.0322 9.53428 43.3609 8.03619 38.5464 7.54247C36.6004 7.34291 35.0105 5.77582 35.0105 3.8196V3.8196Z"
          fill="#FCA600"/>
</svg>
