<svg xmlns="http://www.w3.org/2000/svg" width="33.787" height="33.793" viewBox="0 0 33.787 33.793">
  <path data-name="Path 30477" d="M29.736 4.6a2.089 2.089 0 0 0-3.457.74c-1.755 3.66-3.686 5.724-6.124 6.943a23.085 23.085 0 0 1-10.937 2.288 2.108 2.108 0 0 0-1.489 3.6l6.839 6.839L5 37.769 17.759 28.2l6.841 6.838a2.056 2.056 0 0 0 .688.458 2.109 2.109 0 0 0 2.912-1.945 22.8 22.8 0 0 1 2.284-10.895c1.217-2.438 3.281-4.37 6.945-6.124a2.073 2.073 0 0 0 .747-.475 2.109 2.109 0 0 0-.008-2.982L29.736 4.6z" transform="translate(-5 -3.976)" style="fill:#0fc76b"/>
</svg>
