<svg width="45" height="50" viewBox="0 0 45 50" fill="none" xmlns="http://www.w3.org/2000/svg">
    <path fill-rule="evenodd" clip-rule="evenodd"
          d="M35.2829 7.16598C35.2193 7.40627 34.9623 7.55763 34.7914 7.72395C34.6131 7.89759 34.4737 8.06966 34.2717 8.20561C34.0528 8.11701 33.7204 7.86504 33.4876 7.72099C31.6105 6.56036 29.7353 5.7515 27.5068 5.19151C24.7319 4.49416 21.5306 4.38141 18.6519 4.9358C8.14675 6.9587 1.12085 16.289 1.44913 26.5802C1.5996 31.2953 3.39449 36.1984 6.44956 39.7124C6.57156 39.8526 6.59987 39.903 6.74218 40.0499C6.84691 40.1579 6.92174 40.2318 6.97835 40.389L5.96921 41.3265C5.80995 41.5461 5.42971 41.8737 5.20968 42.088L2.83787 44.3979C2.29724 44.9244 1.77549 45.374 1.23774 45.9023C1.13684 46.0015 0.954556 46.212 0.887877 46.3402C0.681924 46.7365 0.728455 47.6705 1.50078 47.9062C2.02941 48.0675 7.80472 47.9613 9.27405 47.9667C9.9031 47.9691 10.1607 47.9062 10.5717 47.6732C10.9356 47.4667 11.9158 46.4901 12.2226 46.1499L13.2706 45.1105C13.5592 45.1692 14.4403 45.6193 14.8295 45.7741C16.5195 46.4465 18.3348 46.8918 20.1924 47.1037C21.5807 47.2621 23.0158 47.2646 24.4132 47.1417C26.3939 46.9674 26.6497 46.7295 28.2067 46.4459L28.25 47.9147C28.4353 48.7222 28.7588 49.8546 29.8532 49.9867C30.3044 50.041 30.6516 49.9202 30.9159 49.7853C31.3035 49.5877 31.9579 48.9273 31.9835 48.3816C32.0193 47.6207 31.4997 47.1366 30.8073 47.0712L30.4897 47.1451C30.401 46.6429 30.4678 46.1376 30.4929 45.6322C30.9076 45.49 31.6124 45.1302 32.0368 44.9081C32.7064 44.5575 32.6871 45.4365 33.7992 44.9642C34.2102 44.7896 34.7386 44.1964 35.0192 43.868C35.7388 43.0258 35.6704 42.6423 35.8499 42.3929L36.6661 41.6813C36.9385 41.4427 37.22 41.1155 37.4697 40.9216C37.6173 41.1993 37.5438 42.4829 37.5049 42.8797C37.581 43.5406 37.1547 44.3176 37.6293 45.0601C37.8834 45.4577 38.6501 45.6663 39.0986 45.4524C39.9284 45.0563 39.7258 44.0508 39.883 42.8941C39.937 42.4965 39.9241 41.4699 39.9234 40.9573C39.9229 40.6533 39.8682 40.5937 39.8682 40.325C39.7845 40.1268 39.8016 39.6389 39.6804 39.3499C39.8204 39.166 40.0234 38.9971 40.1956 38.8377C40.3914 38.6563 40.5275 38.4917 40.6977 38.2901C41.2125 37.68 42.0192 35.516 42.2791 34.6358C42.3402 34.4287 42.4193 33.9869 42.4988 33.8136C42.55 33.7021 43.6072 33.0015 42.9515 31.4627C42.8291 31.1757 42.9699 30.8872 43.0341 30.5981C43.8319 27.0089 43.6947 22.9854 42.5987 19.5611C42.0244 17.7667 41.5707 16.7524 40.6941 15.1875L39.8863 13.8624L40.9346 12.8499C41.449 12.3464 43.6248 10.2878 43.9812 9.82175C44.3105 9.39117 44.346 8.89284 44.3458 8.15236V2.13084C44.3458 1.32822 44.5273 0.21944 43.4197 0.0207321C42.5847 -0.129078 42.0914 0.562976 41.5076 1.13154C40.8016 1.81907 40.1348 2.46846 39.4288 3.15599C38.7318 3.83481 38.0738 4.47563 37.3768 5.15445C37.125 5.39972 35.5853 7.08843 35.2832 7.16598H35.2829Z"
          fill="white"/>
    <path fill-rule="evenodd" clip-rule="evenodd"
          d="M36.5753 16.1864C37.0821 15.7809 42.3128 10.6184 42.916 10.0293C43.7131 9.25063 43.707 9.20282 43.707 7.73711L43.7073 1.55987C43.7083 1.32223 43.7843 0.500452 43.0861 0.64014C42.84 0.689506 42.3936 1.19375 42.2227 1.36007C37.9971 5.47532 33.765 9.58404 29.5305 13.708L27.1585 16.0178C26.8856 16.2842 26.6489 16.4602 26.5464 16.9755C26.4428 17.4966 26.5168 26.2241 26.5138 27.7221C26.5127 28.2584 26.521 28.9089 27.1043 28.3193C28.1426 27.27 29.2165 26.2824 30.2838 25.2389C30.8196 24.715 31.3113 24.2229 31.846 23.6978C32.0234 23.5235 32.4106 23.0154 32.7581 23.0744C32.9564 23.108 33.1241 23.2603 33.1489 23.4734C33.1818 23.7557 33.0304 23.8723 32.8995 23.9969L28.1545 28.6158C27.6198 29.1366 27.1051 29.6771 26.5565 30.1736C26.2444 30.456 25.6753 30.5311 25.623 29.9569L25.6216 25.2825C25.6216 21.1644 25.6208 17.0462 25.6216 12.9281C25.6216 12.4075 25.7271 11.9266 25.2663 11.7835C24.8401 11.6513 24.5043 12.1341 24.3171 12.3164L19.5499 16.9655C18.7042 17.7871 18.8683 17.9658 18.8683 19.3647V37.8962C18.8683 39.0368 18.8182 39.6645 19.3755 40.5179C20.4567 42.1733 23.0603 42.6198 24.6527 40.9334L25.474 40.1778C25.6185 40.0423 25.757 39.9496 25.9079 39.8192C26.552 39.2627 27.746 38.1015 28.3667 37.5955C29.7748 36.4475 32.3919 33.7811 33.5913 32.613C35.9641 30.3022 37.7971 28.8069 38.8769 25.4052C39.7786 22.5649 39.3193 19.3137 37.1482 17.1882C36.6595 16.71 36.5191 16.7095 36.5749 16.1866L36.5753 16.1864Z"
          fill="#20BEC6"/>
    <path fill-rule="evenodd" clip-rule="evenodd"
          d="M11.4196 11.7763C10.933 11.9654 11.0792 12.3678 11.0792 13.3431V34.2624C11.0792 34.5319 11.0168 34.9335 11.1299 35.1552C11.2148 35.3215 11.5024 35.4712 11.7877 35.3641C11.938 35.3075 17.4496 29.9935 17.6865 29.6862C18.0825 29.1725 18.0216 28.8207 18.0214 28.0852L18.0221 18.5855C18.0227 17.8706 17.8169 17.5526 17.461 17.2045L12.5706 12.4681C12.352 12.2597 11.8697 11.6013 11.4196 11.7762V11.7763Z"
          fill="#20BEC6"/>
    <path fill-rule="evenodd" clip-rule="evenodd"
          d="M8.95501 47.3464C10.3044 47.3462 10.347 47.0753 11.1922 46.2521L15.6261 41.9532C16.1271 41.4647 16.5976 41.0218 17.0959 40.5296C17.2265 40.4003 17.3127 40.2641 17.4446 40.1424C17.9976 39.6323 17.9758 39.4287 17.9805 38.519L17.999 31.8746C17.999 31.4499 17.8745 31.1716 17.3858 31.2543C17.0275 31.3149 14.69 33.7864 14.1366 34.3252C13.6882 34.7619 13.2759 35.1571 12.8275 35.5938C9.44718 38.8859 5.89258 42.3778 2.48765 45.6127C1.97005 46.1045 1.28519 46.5894 1.46204 47.0599C1.59412 47.4112 2.05448 47.3444 2.45247 47.3439L8.95517 47.3462L8.95501 47.3464Z"
          fill="#20BEC6"/>
    <path fill-rule="evenodd" clip-rule="evenodd"
          d="M5.96943 41.3264L6.97856 40.389C6.92196 40.2315 6.84713 40.1577 6.74239 40.0498C6.59992 39.9029 6.57162 39.8526 6.44977 39.7123C3.3947 36.1983 1.59981 31.2953 1.44934 26.5801C1.12107 16.2889 8.14696 6.95848 18.6521 4.93573C21.5308 4.3815 24.7321 4.49409 27.507 5.19143C29.7355 5.75143 31.6107 6.56044 33.4878 7.72092C33.7206 7.86497 34.053 8.11693 34.2719 8.20554C34.4739 8.06959 34.6133 7.89751 34.7916 7.72388C34.9625 7.55756 35.2195 7.40604 35.2831 7.1659L33.6958 6.16987C33.1187 5.83039 32.5842 5.56767 31.9625 5.26245C31.6729 5.12027 31.3798 4.99335 31.0817 4.87438C28.6102 3.88769 26.2532 3.31025 23.559 3.16854C18.0279 2.87764 12.7799 4.75805 8.68104 7.93753C8.56175 8.03004 8.44022 8.11553 8.32829 8.21691L5.33702 11.1693C4.57205 12.1124 3.77591 13.1443 3.17979 14.2074C2.85983 14.7782 2.57057 15.2656 2.27348 15.8684C1.40489 17.6308 0.727391 19.773 0.350504 21.7302C0.0118334 23.4896 1.62526e-08 24.7478 1.62526e-08 26.5278C-0.000159885 30.3553 1.17959 33.8085 2.68218 36.7372L3.66078 38.3796C3.98426 38.9131 4.37874 39.4289 4.75146 39.9129C4.92736 40.1412 5.73677 41.1625 5.96975 41.3261L5.96943 41.3264Z"
          fill="#002D61"/>
    <path fill-rule="evenodd" clip-rule="evenodd"
          d="M39.8687 40.3248C40.3126 40.0951 41.7667 37.6307 42.1914 36.9399C42.5106 36.4205 43.0679 35.1683 43.3027 34.5962C43.7589 33.4851 44.105 32.4124 44.4105 31.1588C45.5131 26.634 45.0153 21.371 43.3638 17.3623L42.6587 15.7651C42.2527 14.9809 41.8726 14.2856 41.4042 13.5608C41.2368 13.3017 41.1075 13.1139 40.9349 12.8496L39.8866 13.8621L40.6944 15.1872C41.5712 16.7521 42.0248 17.7664 42.599 19.5608C43.695 22.9851 43.8322 27.0087 43.0344 30.5979C42.9701 30.8869 42.8296 31.1756 42.9518 31.4625C43.6075 33.0012 42.5502 33.7018 42.4991 33.8133C42.4196 33.9867 42.3405 34.4285 42.2794 34.6356C42.0197 35.5158 41.2128 37.6797 40.698 38.2899C40.5278 38.4914 40.3917 38.656 40.1959 38.8374C40.0237 38.9969 39.8207 39.1657 39.6807 39.3496C39.8019 39.6386 39.7848 40.1265 39.8685 40.3248H39.8687Z"
          fill="#002D61"/>
    <path fill-rule="evenodd" clip-rule="evenodd"
          d="M40.9872 32.4627C39.8655 32.4664 38.038 31.7624 37.7238 33.0596C37.6136 33.5146 37.6117 34.4851 37.6875 34.983C37.7793 35.586 38.0423 36.169 38.7918 35.9645C39.0484 35.4978 38.5652 34.3266 38.7331 33.6627C38.8857 33.0591 40.1873 33.3295 40.7619 33.4413C40.6569 34.2548 39.8974 36.1195 39.473 36.9411C39.3969 37.0886 39.2718 37.2907 39.1557 37.4097C39.0393 37.529 38.7765 37.7065 38.6421 37.7358C38.3223 36.997 37.9584 36.2709 37.445 35.8949C36.625 35.2946 35.8901 35.7476 35.6737 36.6142C35.4993 37.3134 35.7318 38.5945 35.9978 39.171C36.1549 39.5112 36.4029 39.8264 36.6893 40.0057C37.1755 40.3103 37.4808 40.11 37.9298 40.0455C38.3594 41.7411 37.8687 44.0759 37.9886 44.5046C38.0959 44.8882 38.6554 45.2068 38.988 44.8798C39.3882 44.4863 39.4093 41.2949 39.3286 40.4912C39.2805 40.0122 39.1565 39.5975 39.0817 39.1495C39.7664 38.5937 40.2862 38.0458 40.6758 37.227C41.0694 36.3993 41.3883 35.6559 41.6748 34.7237C41.7458 34.4931 41.9857 33.5168 42.0829 33.4055C42.2479 33.2166 42.3594 33.3008 42.5076 32.9408C42.6059 32.7019 42.6216 32.4211 42.5834 32.136C42.5205 31.6671 42.2295 31.175 41.6457 31.3218C41.1161 31.4553 41.2343 32.0376 40.9871 32.4625L40.9872 32.4627Z"
          fill="#FCA600"/>
    <path fill-rule="evenodd" clip-rule="evenodd"
          d="M12.2227 46.1497L13.8269 46.9064C15.7739 47.6982 17.2426 48.1329 19.4913 48.4495C19.9852 48.5191 21.1862 48.6447 21.6923 48.6418L23.5069 48.6429C23.7749 48.6351 23.8013 48.5929 24.0912 48.589C25.8418 48.5655 27.7462 47.9549 28.25 47.9145L28.2067 46.4457C26.6496 46.7293 26.3939 46.9672 24.4132 47.1415C23.0158 47.2644 21.5807 47.262 20.1924 47.1035C18.335 46.8916 16.5197 46.4463 14.8295 45.7739C14.4403 45.6191 13.5593 45.1691 13.2706 45.1104L12.2227 46.1497Z"
          fill="#002D61"/>
    <path fill-rule="evenodd" clip-rule="evenodd"
          d="M30.1144 48.0143C29.4161 45.6608 30.5571 42.3557 31.7679 43.6057C32.0025 43.8478 32.2965 44.0964 32.5631 44.2839C33.5316 44.9649 33.8836 44.2647 34.4098 43.7416C34.8735 43.2805 35.2242 42.7247 35.4036 41.8517C35.6051 40.8714 35.3948 40.2172 35.0094 39.4616C34.7843 39.0204 34.2006 37.7274 33.4426 38.388C32.6322 39.0942 35.2953 40.5895 33.8068 42.5307C33.5193 42.9055 33.3031 43.1871 33.0209 43.0127C32.6139 42.7613 31.8543 41.2903 30.0941 42.6515C29.6603 42.9871 29.2448 43.7542 29.0376 44.479C28.6677 45.7725 28.469 48.4069 29.4241 49.2101C30.4674 50.0875 32.0668 48.3596 31.1528 47.7349C30.6504 47.3916 30.2337 47.9715 30.1145 48.0143H30.1144Z"
          fill="#FCA600"/>
    <path fill-rule="evenodd" clip-rule="evenodd"
          d="M30.8074 47.0711C30.9504 46.9753 31.2919 46.8386 31.4851 46.7577L32.8838 46.0956C33.0267 46.0146 33.417 45.7782 33.5678 45.7345C33.9138 45.141 34.0753 45.0243 34.9116 44.8945C36.1408 44.0126 36.4534 43.7587 37.5052 42.8795C37.5441 42.4827 37.6176 41.199 37.47 40.9214C37.2203 41.1153 36.9388 41.4425 36.6664 41.681L35.8502 42.3927C35.6707 42.6422 35.7391 43.0256 35.0196 43.8678C34.7389 44.1962 34.2106 44.7895 33.7995 44.9639C32.6874 45.4362 32.7067 44.5573 32.0371 44.9079C31.6127 45.1299 30.9079 45.4898 30.4932 45.632C30.468 46.1373 30.4011 46.6427 30.49 47.1449L30.8076 47.0709L30.8074 47.0711Z"
          fill="#002D61"/>
    <path fill-rule="evenodd" clip-rule="evenodd"
          d="M33.5678 45.7346C33.5705 46.2139 33.3676 46.4951 34.1215 46.971C35.7223 47.9816 37.2834 45.2641 34.9115 44.8944C34.0753 45.0244 33.9138 45.1409 33.5676 45.7344L33.5678 45.7346Z"
          fill="white"/>
    <path fill-rule="evenodd" clip-rule="evenodd"
          d="M37.7753 29.7478C36.7218 30.0419 37.5278 31.0336 38.1901 30.8145C38.4094 30.7421 38.7354 30.3469 38.6423 30.0189C38.5678 29.7565 38.0928 29.6592 37.7753 29.7478Z"
          fill="#FCA600"/>
    <path fill-rule="evenodd" clip-rule="evenodd"
          d="M34.6308 45.5281C33.5772 45.8222 34.3833 46.8139 35.0456 46.5948C35.2647 46.5224 35.5909 46.1271 35.4978 45.7992C35.4233 45.5368 34.9482 45.4394 34.6308 45.5281Z"
          fill="#FCA600"/>
    <path fill-rule="evenodd" clip-rule="evenodd"
          d="M37.5463 38.7988C37.686 38.4133 37.0863 37.3404 36.8945 37.208C36.9129 37.6887 36.8789 38.9833 37.5463 38.7988Z"
          fill="white"/>
</svg>
