<svg width="64" height="13" viewBox="0 0 64 13" fill="none" xmlns="http://www.w3.org/2000/svg">
  <g clip-path="url(#clip0_225_8426)">
    <path d="M12.0891 5.96626C12.2212 5.86781 12.3193 5.73048 12.3694 5.57351C12.4196 5.41655 12.4193 5.24782 12.3688 5.09099C12.3182 4.93416 12.2198 4.79709 12.0874 4.699C11.955 4.60091 11.7952 4.54672 11.6304 4.54403L8.43043 4.42314C8.41469 4.42206 8.39961 4.41645 8.38699 4.40698C8.37438 4.39752 8.36476 4.38461 8.35932 4.36981L7.25354 1.38314C7.19798 1.23119 7.09707 1.09999 6.96447 1.00729C6.83187 0.914584 6.67399 0.864868 6.5122 0.864868C6.35042 0.864868 6.19253 0.914584 6.05994 1.00729C5.92734 1.09999 5.82643 1.23119 5.77087 1.38314L4.66865 4.38048C4.6632 4.39528 4.65359 4.40819 4.64097 4.41765C4.62835 4.42711 4.61327 4.43272 4.59754 4.43381L1.39754 4.5547C1.23277 4.55739 1.07299 4.61158 0.940575 4.70967C0.808164 4.80776 0.709772 4.94483 0.659194 5.10166C0.608616 5.25849 0.608389 5.42721 0.658545 5.58418C0.708701 5.74115 0.806724 5.87848 0.938871 5.97692L3.44909 7.95026C3.46166 7.96014 3.47105 7.97349 3.4761 7.98866C3.48116 8.00383 3.48166 8.02014 3.47754 8.03559L2.61354 11.0969C2.56877 11.2528 2.5731 11.4187 2.62596 11.572C2.67882 11.7254 2.77763 11.8587 2.90895 11.9539C3.04027 12.0491 3.19773 12.1015 3.3599 12.1041C3.52208 12.1066 3.68109 12.0591 3.81531 11.968L6.46776 10.1903C6.48083 10.1812 6.49633 10.1764 6.5122 10.1764C6.52808 10.1764 6.54358 10.1812 6.55665 10.1903L9.20909 11.968C9.3415 12.0622 9.49995 12.1128 9.66243 12.1128C9.8249 12.1128 9.98335 12.0622 10.1158 11.968C10.2471 11.8737 10.346 11.7411 10.3989 11.5882C10.4517 11.4354 10.4559 11.27 10.4109 11.1147L9.53976 8.0427C9.53514 8.02728 9.5354 8.01081 9.54049 7.99554C9.54558 7.98026 9.55526 7.96693 9.5682 7.95737L12.0891 5.96626Z"
          fill="#FFA000"/>
  </g>
  <g clip-path="url(#clip1_225_8426)">
    <path d="M24.8899 5.96626C25.022 5.86781 25.12 5.73048 25.1702 5.57351C25.2204 5.41655 25.2201 5.24782 25.1696 5.09099C25.119 4.93416 25.0206 4.79709 24.8882 4.699C24.7558 4.60091 24.596 4.54672 24.4312 4.54403L21.2312 4.42314C21.2155 4.42206 21.2004 4.41645 21.1878 4.40698C21.1752 4.39752 21.1655 4.38461 21.1601 4.36981L20.0543 1.38314C19.9988 1.23119 19.8979 1.09999 19.7653 1.00729C19.6327 0.914584 19.4748 0.864868 19.313 0.864868C19.1512 0.864868 18.9933 0.914584 18.8607 1.00729C18.7281 1.09999 18.6272 1.23119 18.5717 1.38314L17.4694 4.38048C17.464 4.39528 17.4544 4.40819 17.4418 4.41765C17.4291 4.42711 17.4141 4.43272 17.3983 4.43381L14.1983 4.5547C14.0336 4.55739 13.8738 4.61158 13.7414 4.70967C13.6089 4.80776 13.5106 4.94483 13.46 5.10166C13.4094 5.25849 13.4092 5.42721 13.4593 5.58418C13.5095 5.74115 13.6075 5.87848 13.7397 5.97692L16.2499 7.95026C16.2624 7.96014 16.2718 7.97349 16.2769 7.98866C16.2819 8.00383 16.2824 8.02014 16.2783 8.03559L15.4143 11.0969C15.3695 11.2528 15.3739 11.4187 15.4267 11.572C15.4796 11.7254 15.5784 11.8587 15.7097 11.9539C15.8411 12.0491 15.9985 12.1015 16.1607 12.1041C16.3229 12.1066 16.4819 12.0591 16.6161 11.968L19.2685 10.1903C19.2816 10.1812 19.2971 10.1764 19.313 10.1764C19.3289 10.1764 19.3444 10.1812 19.3574 10.1903L22.0099 11.968C22.1423 12.0622 22.3007 12.1128 22.4632 12.1128C22.6257 12.1128 22.7841 12.0622 22.9165 11.968C23.0479 11.8737 23.1468 11.7411 23.1997 11.5882C23.2525 11.4354 23.2567 11.27 23.2117 11.1147L22.3405 8.0427C22.3359 8.02728 22.3362 8.01081 22.3413 7.99554C22.3464 7.98026 22.356 7.96693 22.369 7.95737L24.8899 5.96626Z"
          fill="#FFA000"/>
  </g>
  <g clip-path="url(#clip2_225_8426)">
    <path d="M37.6887 5.96626C37.8208 5.86781 37.9189 5.73048 37.969 5.57351C38.0192 5.41655 38.019 5.24782 37.9684 5.09099C37.9178 4.93416 37.8194 4.79709 37.687 4.699C37.5546 4.60091 37.3948 4.54672 37.23 4.54403L34.03 4.42314C34.0143 4.42206 33.9992 4.41645 33.9866 4.40698C33.974 4.39752 33.9644 4.38461 33.9589 4.36981L32.8531 1.38314C32.7976 1.23119 32.6967 1.09999 32.5641 1.00729C32.4315 0.914584 32.2736 0.864868 32.1118 0.864868C31.95 0.864868 31.7921 0.914584 31.6595 1.00729C31.5269 1.09999 31.426 1.23119 31.3705 1.38314L30.2683 4.38048C30.2628 4.39528 30.2532 4.40819 30.2406 4.41765C30.228 4.42711 30.2129 4.43272 30.1971 4.43381L26.9971 4.5547C26.8324 4.55739 26.6726 4.61158 26.5402 4.70967C26.4078 4.80776 26.3094 4.94483 26.2588 5.10166C26.2082 5.25849 26.208 5.42721 26.2582 5.58418C26.3083 5.74115 26.4063 5.87848 26.5385 5.97692L29.0487 7.95026C29.0613 7.96014 29.0707 7.97349 29.0757 7.98866C29.0808 8.00383 29.0813 8.02014 29.0771 8.03559L28.2131 11.0969C28.1684 11.2528 28.1727 11.4187 28.2256 11.572C28.2784 11.7254 28.3772 11.8587 28.5086 11.9539C28.6399 12.0491 28.7973 12.1015 28.9595 12.1041C29.1217 12.1066 29.2807 12.0591 29.4149 11.968L32.0674 10.1903C32.0804 10.1812 32.0959 10.1764 32.1118 10.1764C32.1277 10.1764 32.1432 10.1812 32.1563 10.1903L34.8087 11.968C34.9411 12.0622 35.0996 12.1128 35.262 12.1128C35.4245 12.1128 35.583 12.0622 35.7154 11.968C35.8467 11.8737 35.9456 11.7411 35.9985 11.5882C36.0513 11.4354 36.0555 11.27 36.0105 11.1147L35.1394 8.0427C35.1348 8.02728 35.135 8.01081 35.1401 7.99554C35.1452 7.98026 35.1549 7.96693 35.1678 7.95737L37.6887 5.96626Z"
          fill="#FFA000"/>
  </g>
  <g clip-path="url(#clip3_225_8426)">
    <path d="M50.4895 5.96626C50.6216 5.86781 50.7197 5.73048 50.7698 5.57351C50.82 5.41655 50.8197 5.24782 50.7692 5.09099C50.7186 4.93416 50.6202 4.79709 50.4878 4.699C50.3554 4.60091 50.1956 4.54672 50.0308 4.54403L46.8308 4.42314C46.8151 4.42206 46.8 4.41645 46.7874 4.40698C46.7748 4.39752 46.7652 4.38461 46.7597 4.36981L45.6539 1.38314C45.5984 1.23119 45.4975 1.09999 45.3649 1.00729C45.2323 0.914584 45.0744 0.864868 44.9126 0.864868C44.7508 0.864868 44.5929 0.914584 44.4603 1.00729C44.3277 1.09999 44.2268 1.23119 44.1713 1.38314L43.069 4.38048C43.0636 4.39528 43.054 4.40819 43.0414 4.41765C43.0287 4.42711 43.0137 4.43272 42.9979 4.43381L39.7979 4.5547C39.6332 4.55739 39.4734 4.61158 39.341 4.70967C39.2086 4.80776 39.1102 4.94483 39.0596 5.10166C39.009 5.25849 39.0088 5.42721 39.0589 5.58418C39.1091 5.74115 39.2071 5.87848 39.3393 5.97692L41.8495 7.95026C41.862 7.96014 41.8714 7.97349 41.8765 7.98866C41.8815 8.00383 41.882 8.02014 41.8779 8.03559L41.0139 11.0969C40.9692 11.2528 40.9735 11.4187 41.0264 11.572C41.0792 11.7254 41.178 11.8587 41.3093 11.9539C41.4407 12.0491 41.5981 12.1015 41.7603 12.1041C41.9225 12.1066 42.0815 12.0591 42.2157 11.968L44.8682 10.1903C44.8812 10.1812 44.8967 10.1764 44.9126 10.1764C44.9285 10.1764 44.944 10.1812 44.957 10.1903L47.6095 11.968C47.7419 12.0622 47.9003 12.1128 48.0628 12.1128C48.2253 12.1128 48.3837 12.0622 48.5162 11.968C48.6475 11.8737 48.7464 11.7411 48.7993 11.5882C48.8521 11.4354 48.8563 11.27 48.8113 11.1147L47.9402 8.0427C47.9355 8.02728 47.9358 8.01081 47.9409 7.99554C47.946 7.98026 47.9556 7.96693 47.9686 7.95737L50.4895 5.96626Z"
          fill="#FFA000"/>
  </g>
  <g clip-path="url(#clip4_225_8426)">
    <path d="M63.2883 5.96626C63.4205 5.86781 63.5185 5.73048 63.5686 5.57351C63.6188 5.41655 63.6186 5.24782 63.568 5.09099C63.5174 4.93416 63.419 4.79709 63.2866 4.699C63.1542 4.60091 62.9944 4.54672 62.8296 4.54403L59.6296 4.42314C59.6139 4.42206 59.5988 4.41645 59.5862 4.40698C59.5736 4.39752 59.564 4.38461 59.5585 4.36981L58.4528 1.38314C58.3972 1.23119 58.2963 1.09999 58.1637 1.00729C58.0311 0.914584 57.8732 0.864868 57.7114 0.864868C57.5496 0.864868 57.3918 0.914584 57.2592 1.00729C57.1266 1.09999 57.0256 1.23119 56.9701 1.38314L55.8679 4.38048C55.8624 4.39528 55.8528 4.40819 55.8402 4.41765C55.8276 4.42711 55.8125 4.43272 55.7968 4.43381L52.5968 4.5547C52.432 4.55739 52.2722 4.61158 52.1398 4.70967C52.0074 4.80776 51.909 4.94483 51.8584 5.10166C51.8078 5.25849 51.8076 5.42721 51.8578 5.58418C51.9079 5.74115 52.0059 5.87848 52.1381 5.97692L54.6483 7.95026C54.6609 7.96014 54.6703 7.97349 54.6753 7.98866C54.6804 8.00383 54.6809 8.02014 54.6768 8.03559L53.8128 11.0969C53.768 11.2528 53.7723 11.4187 53.8252 11.572C53.878 11.7254 53.9768 11.8587 54.1082 11.9539C54.2395 12.0491 54.3969 12.1015 54.5591 12.1041C54.7213 12.1066 54.8803 12.0591 55.0145 11.968L57.667 10.1903C57.68 10.1812 57.6955 10.1764 57.7114 10.1764C57.7273 10.1764 57.7428 10.1812 57.7559 10.1903L60.4083 11.968C60.5407 12.0622 60.6992 12.1128 60.8616 12.1128C61.0241 12.1128 61.1826 12.0622 61.315 11.968C61.4463 11.8737 61.5452 11.7411 61.5981 11.5882C61.6509 11.4354 61.6551 11.27 61.6101 11.1147L60.739 8.0427C60.7344 8.02728 60.7346 8.01081 60.7397 7.99554C60.7448 7.98026 60.7545 7.96693 60.7674 7.95737L63.2883 5.96626Z"
          fill="#FFA000"/>
  </g>
  <defs>
    <clipPath id="clip0_225_8426">
      <rect width="12.8" height="12.8" fill="white"/>
    </clipPath>
    <clipPath id="clip1_225_8426">
      <rect width="12.8" height="12.8" fill="white" transform="translate(12.8008)"/>
    </clipPath>
    <clipPath id="clip2_225_8426">
      <rect width="12.8" height="12.8" fill="white" transform="translate(25.5996)"/>
    </clipPath>
    <clipPath id="clip3_225_8426">
      <rect width="12.8" height="12.8" fill="white" transform="translate(38.4004)"/>
    </clipPath>
    <clipPath id="clip4_225_8426">
      <rect width="12.8" height="12.8" fill="white" transform="translate(51.1992)"/>
    </clipPath>
  </defs>
</svg>
