<svg width="107" height="107" viewBox="0 0 107 107" fill="none" xmlns="http://www.w3.org/2000/svg">
  <circle cx="53" cy="54" r="37" fill="#FCA600"/>
  <path d="M54.7946 83H52.2056C50.438 83 49 81.4299 49 79.5C49 77.5701 50.438 76 52.2056 76H54.7946C56.5623 76 58 77.5701 58 79.5C58 81.4299 56.562 83 54.7946 83ZM52.2056 77.4616C51.1762 77.4616 50.3387 78.376 50.3387 79.5C50.3387 80.624 51.1762 81.5384 52.2056 81.5384H54.7946C55.8238 81.5384 56.6613 80.624 56.6613 79.5C56.6613 78.376 55.8238 77.4616 54.7946 77.4616H52.2056Z" fill="white"/>
  <path d="M54.7946 82.5H52.2056C50.7546 82.5 49.5 81.196 49.5 79.5C49.5 77.804 50.7546 76.5 52.2056 76.5H54.7946C56.2456 76.5 57.5 77.8039 57.5 79.5C57.5 81.1961 56.2454 82.5 54.7946 82.5ZM52.2056 76.9616C50.8596 76.9616 49.8387 78.1421 49.8387 79.5C49.8387 80.8579 50.8596 82.0384 52.2056 82.0384H54.7946C56.1405 82.0384 57.1613 80.8578 57.1613 79.5C57.1613 78.1422 56.1405 76.9616 54.7946 76.9616H52.2056Z" stroke="white" stroke-opacity="0.2"/>
  <path d="M71.2419 55C70.8231 55 70.4838 55.3296 70.4838 55.7365C70.4838 64.9949 63.0892 72.5271 54 72.5271C44.9108 72.5271 37.5162 64.9949 37.5162 55.7365C37.5162 55.3296 37.1769 55 36.7581 55C36.3393 55 36 55.3296 36 55.7365C36 65.8071 44.0748 74 54 74C63.9252 74 72 65.8071 72 55.7365C72 55.3296 71.6607 55 71.2419 55Z" fill="white"/>
  <path d="M70.9838 55.7365C70.9838 55.6193 71.0855 55.5 71.2419 55.5C71.3983 55.5 71.5 55.6193 71.5 55.7365C71.5 65.5378 63.6422 73.5 54 73.5C44.3578 73.5 36.5 65.5378 36.5 55.7365C36.5 55.6193 36.6017 55.5 36.7581 55.5C36.9145 55.5 37.0162 55.6193 37.0162 55.7365C37.0162 65.2623 44.626 73.0271 54 73.0271C63.3739 73.0271 70.9838 65.2623 70.9838 55.7365Z" stroke="white" stroke-opacity="0.2"/>
  <path d="M60.5 57C61.3284 57 62 56.1046 62 55C62 53.8954 61.3284 53 60.5 53C59.6716 53 59 53.8954 59 55C59 56.1046 59.6716 57 60.5 57Z" fill="white"/>
  <path d="M61.5 55C61.5 55.4546 61.3612 55.8468 61.1607 56.1142C60.9602 56.3814 60.7216 56.5 60.5 56.5C60.2784 56.5 60.0398 56.3814 59.8393 56.1142C59.6388 55.8468 59.5 55.4546 59.5 55C59.5 54.5454 59.6388 54.1532 59.8393 53.8858C60.0398 53.6186 60.2785 53.5 60.5 53.5C60.7215 53.5 60.9602 53.6186 61.1607 53.8858C61.3612 54.1532 61.5 54.5454 61.5 55Z" stroke="white" stroke-opacity="0.2"/>
  <path d="M46.5 57C47.3284 57 48 56.1046 48 55C48 53.8954 47.3284 53 46.5 53C45.6716 53 45 53.8954 45 55C45 56.1046 45.6716 57 46.5 57Z" fill="white"/>
  <path d="M47.5 55C47.5 55.4546 47.3612 55.8468 47.1607 56.1142C46.9602 56.3814 46.7216 56.5 46.5 56.5C46.2785 56.5 46.0398 56.3814 45.8393 56.1142C45.6388 55.8468 45.5 55.4546 45.5 55C45.5 54.5454 45.6388 54.1532 45.8393 53.8858C46.0398 53.6186 46.2785 53.5 46.5 53.5C46.7215 53.5 46.9602 53.6186 47.1607 53.8858C47.3612 54.1532 47.5 54.5454 47.5 55Z" stroke="white" stroke-opacity="0.2"/>
  <path d="M57.772 64.2858C58.076 63.9914 58.076 63.5148 57.772 63.2208C57.4683 62.9264 56.9754 62.9264 56.672 63.2208C55.8237 64.042 54.6973 64.4939 53.4998 64.4939C52.3024 64.4939 51.176 64.042 50.328 63.2208C50.0243 62.9264 49.5314 62.9264 49.228 63.2208C48.924 63.5151 48.924 63.9917 49.228 64.2858C50.3697 65.3914 51.887 66 53.5002 66C55.113 66.0003 56.6303 65.3914 57.772 64.2858Z" fill="white"/>
  <path d="M57.4242 63.9265L57.4241 63.9266C56.3773 64.9404 54.9854 65.5003 53.5003 65.5H53.5002C52.0146 65.5 50.6227 64.9404 49.5759 63.9266L49.5756 63.9264C49.4749 63.8289 49.4746 63.6779 49.5758 63.58L49.5762 63.5796C49.6855 63.4736 49.8702 63.4733 49.98 63.5798L49.9802 63.5799C50.923 64.493 52.1748 64.9939 53.4998 64.9939C54.8249 64.9939 56.0767 64.493 57.0198 63.58L57.0201 63.5796C57.1295 63.4736 57.3141 63.4733 57.424 63.5798L57.4244 63.5802C57.5251 63.6776 57.5254 63.8286 57.4242 63.9265Z" stroke="white" stroke-opacity="0.2"/>
  <path d="M53.5 33C43.2991 33 35 41.0114 35 50.8586C35 51.0824 35.1003 51.2948 35.2738 51.4383C35.4472 51.5822 35.6762 51.6411 35.8984 51.6018C40.0329 50.8574 44.4369 49.3386 46.3526 43.9158C50.6749 48.7769 59.0481 52.0003 66.8247 52C68.3777 52 69.9084 51.8713 71.3769 51.6015C71.7381 51.535 72 51.2229 72 50.8589C71.9997 41.0114 63.7009 33 53.5 33ZM46.6565 41.8698C46.512 41.6679 46.2791 41.5516 46.0352 41.5516C45.9874 41.5516 45.9392 41.5562 45.891 41.5652C45.5978 41.6214 45.3643 41.842 45.2941 42.1296C44.2119 46.5732 41.7304 48.8171 36.5508 49.9332C37.0511 41.348 44.4619 34.5106 53.4997 34.5106C62.639 34.5106 70.1145 41.5024 70.4626 50.2232C61.694 51.5658 50.9236 47.8265 46.6565 41.8698Z" fill="white"/>
  <path d="M35.5929 51.0534L35.5925 51.0531C35.5331 51.0039 35.5 50.9324 35.5 50.8586C35.5 41.3041 43.5585 33.5 53.5 33.5C63.4415 33.5 71.4997 41.304 71.5 50.8589C71.5 50.9784 71.4136 51.0863 71.2865 51.1097C69.8507 51.3735 68.3504 51.5 66.8247 51.5C59.1536 51.5003 50.9314 48.313 46.7263 43.5835L46.1633 42.9504L45.8812 43.7492C44.0589 48.9076 39.8962 50.3738 35.8108 51.1095C35.7306 51.1235 35.651 51.1016 35.5929 51.0534ZM46.25 42.1608L46.2501 42.1609L45.7799 42.248C45.7799 42.248 45.7799 42.2479 45.7799 42.2479C45.8031 42.1533 45.8812 42.0765 45.9843 42.0564C46.0023 42.0531 46.0193 42.0516 46.0352 42.0516C46.121 42.0516 46.2012 42.0927 46.25 42.1608Z" stroke="white" stroke-opacity="0.2"/>
  <path d="M79.3096 48H73.6904C73.309 48 73 48.3182 73 48.7109V59.2891C73 59.6818 73.309 60 73.6904 60H79.3096C79.691 60 80 59.6818 80 59.2891V48.7109C80 48.3182 79.691 48 79.3096 48ZM78.6192 58.5782H74.3808V49.4218H78.6192V58.5782Z" fill="white"/>
  <path d="M78.6192 59.0782H79.1192V58.5782V49.4218V48.9218H78.6192H74.3808H73.8808V49.4218V58.5782V59.0782H74.3808H78.6192ZM73.6904 48.5H79.3096C79.4011 48.5 79.5 48.5804 79.5 48.7109V59.2891C79.5 59.4196 79.4011 59.5 79.3096 59.5H73.6904C73.5989 59.5 73.5 59.4196 73.5 59.2891V48.7109C73.5 48.5804 73.5989 48.5 73.6904 48.5Z" stroke="white" stroke-opacity="0.2"/>
  <path d="M49.0672 78.4907C39.3576 78.0536 31.7279 70.0642 31.5139 60.2172H33.7815C34.1914 60.2172 34.5235 59.8792 34.5235 59.4621V48.2262C34.5235 47.8091 34.1914 47.4711 33.7815 47.4711H31.5228C31.914 37.5006 40.0029 29.5105 49.895 29.5105H56.6658C60.7312 29.5105 64.584 30.8332 67.808 33.3353C68.1339 33.5879 68.5996 33.5241 68.848 33.1925C69.0964 32.8608 69.0338 32.3872 68.7079 32.1341C65.2231 29.4296 61.0591 28 56.6658 28H49.895C39.1846 28 30.4308 36.6672 30.0387 47.4708H27.742C27.3321 47.4708 27 47.8088 27 48.2259V59.4618C27 59.8789 27.3321 60.2169 27.742 60.2169H30.0298C30.2441 70.8737 38.4969 79.5264 49.0016 79.9991C49.0128 79.9997 49.0238 80 49.0348 80C49.4296 80 49.7578 79.6835 49.7756 79.2781C49.794 78.8622 49.4768 78.5094 49.0672 78.4907ZM28.484 48.9813H33.0395V58.7069H28.484V48.9813Z" fill="white"/>
  <path d="M31.5139 59.7172H31.0029L31.014 60.228C31.2335 70.3295 39.0635 78.5407 49.0443 78.9901C49.171 78.9959 49.2827 79.1083 49.2761 79.256L49.2761 79.2562C49.2698 79.401 49.1552 79.5 49.0348 79.5L49.0282 79.4998L49.024 79.4996C38.7911 79.0391 30.7389 70.6087 30.5297 60.2068L30.5199 59.7169H30.0298H27.742C27.6165 59.7169 27.5 59.611 27.5 59.4618V48.2259C27.5 48.0767 27.6165 47.9708 27.742 47.9708H30.0387H30.5209L30.5384 47.4889C30.9211 36.9451 39.4627 28.5 49.895 28.5H56.6658C60.9476 28.5 65.0037 29.8923 68.4012 32.529C68.5101 32.6135 68.534 32.7777 68.4478 32.8927C68.3658 33.0022 68.2181 33.0203 68.1145 32.9404C64.8033 30.3704 60.8426 29.0105 56.6658 29.0105H49.895C39.7253 29.0105 31.4245 37.2218 31.0232 47.4515L31.0028 47.9711H31.5228H33.7815C33.907 47.9711 34.0235 48.077 34.0235 48.2262V59.4621C34.0235 59.6113 33.907 59.7172 33.7815 59.7172H31.5139ZM28.484 48.4813H27.984V48.9813V58.7069V59.2069H28.484H33.0395H33.5395V58.7069V48.9813V48.4813H33.0395H28.484Z" stroke="white"
        stroke-opacity="0.2"/>
  <circle cx="53.5" cy="53.5" r="43.5" stroke="url(#paint0_radial_104_3705)" stroke-width="6"/>
  <circle cx="53.5" cy="53.5" r="51.5" stroke="url(#paint1_radial_104_3705)" stroke-width="4"/>
  <defs>
    <radialGradient id="paint0_radial_104_3705" cx="0" cy="0" r="1" gradientUnits="userSpaceOnUse" gradientTransform="translate(53.5 53.5) rotate(90) scale(46.5)">
      <stop offset="0.744792" stop-color="#FCA600"/>
      <stop offset="1" stop-color="#FCA600" stop-opacity="0"/>
    </radialGradient>
    <radialGradient id="paint1_radial_104_3705" cx="0" cy="0" r="1" gradientUnits="userSpaceOnUse" gradientTransform="translate(53.5 53.5) rotate(90) scale(53.5)">
      <stop offset="0.744792" stop-color="#FCA600"/>
      <stop offset="1" stop-color="#FCA600" stop-opacity="0"/>
    </radialGradient>
  </defs>
</svg>
