<svg id="Layer_1_1_" xmlns="http://www.w3.org/2000/svg" width="168.014" height="168.014" viewBox="0 0 168.014 168.014">
  <defs>
    <style>
      .cls-1 {
      fill: #c7c7c7;
      }
    </style>
  </defs>
  <path id="Path_28355" data-name="Path 28355" class="cls-1" d="M45.27,112.542V36.985L60.3,52.012l4.949-4.949L41.769,23.586,18.293,47.062l4.949,4.949L38.269,36.985v75.557Z" transform="translate(42.237 55.472)"/>
  <path id="Path_28356" data-name="Path 28356" class="cls-1" d="M141,57.7a21.03,21.03,0,0,0-18.73-21.579A45.482,45.482,0,0,0,32.5,46.5c0,1.344.07,2.713.21,4.13A38.489,38.489,0,0,0,39.5,127.01h28v-7h-28a31.488,31.488,0,0,1-2.566-62.872l3.815-.308L40.1,53.056a38.463,38.463,0,1,1,75.834-12.913l.508,3.049,3.087-.126a1.74,1.74,0,0,0,.48-.06,13.959,13.959,0,0,1,13.683,16.924l-.819,3.836,3.9.382a28,28,0,0,1-2.765,55.865h-31.5v7h31.5A35.008,35.008,0,0,0,141,57.7Z" transform="translate(-1 -1)"/>
</svg>
