<svg width="519" height="558" viewBox="0 0 519 558" fill="none" xmlns="http://www.w3.org/2000/svg">
  <g style="mix-blend-mode:lighten" opacity="0.5">
    <path fill-rule="evenodd" clip-rule="evenodd"
          d="M406.935 79.9579C406.201 82.639 403.237 84.3279 401.266 86.1837C399.209 88.1211 397.601 90.0412 395.272 91.5581C392.747 90.5694 388.913 87.758 386.228 86.1507C364.579 73.2003 342.952 64.1752 317.249 57.9268C285.245 50.1458 248.324 48.8878 215.123 55.0736C93.9619 77.6451 12.9294 181.752 16.7156 296.581C18.451 349.193 39.1522 403.901 74.3876 443.11C75.7947 444.674 76.1211 445.237 77.7625 446.876C78.9704 448.081 79.8335 448.905 80.4863 450.66L68.8476 461.12C67.0107 463.57 62.6252 467.226 60.0876 469.617L32.7325 495.391C26.4972 501.266 20.4796 506.282 14.2775 512.176C13.1138 513.283 11.0114 515.632 10.2424 517.062C7.86706 521.485 8.40372 531.907 17.3112 534.536C23.4082 536.336 90.0172 535.151 106.964 535.212C114.219 535.238 117.19 534.536 121.929 531.936C126.127 529.632 137.432 518.736 140.971 514.939L153.058 503.342C156.386 503.997 166.548 509.019 171.037 510.746C190.528 518.249 211.465 523.217 232.89 525.582C248.901 527.349 265.453 527.377 281.569 526.006C304.413 524.062 307.364 521.407 325.321 518.242L325.821 534.631C327.958 543.641 331.689 556.277 344.311 557.75C349.515 558.357 353.519 557.008 356.568 555.504C361.038 553.299 368.586 545.929 368.881 539.841C369.294 531.351 363.301 525.949 355.315 525.219L351.653 526.044C350.629 520.44 351.4 514.802 351.69 509.163C356.472 507.577 364.601 503.561 369.495 501.084C377.219 497.172 376.996 506.979 389.822 501.709C394.562 499.761 400.657 493.143 403.894 489.478C412.192 480.081 411.403 475.801 413.474 473.02L422.887 465.079C426.03 462.417 429.275 458.766 432.156 456.603C433.858 459.701 433.01 474.024 432.562 478.451C433.44 485.826 428.523 494.495 433.996 502.779C436.927 507.216 445.77 509.544 450.943 507.156C460.512 502.738 458.176 491.518 459.989 478.611C460.612 474.175 460.463 462.721 460.455 457.001C460.45 453.609 459.819 452.943 459.819 449.946C458.853 447.734 459.05 442.29 457.652 439.065C459.268 437.013 461.608 435.129 463.594 433.35C465.853 431.326 467.423 429.489 469.385 427.241C475.323 420.433 484.627 396.287 487.624 386.466C488.329 384.155 489.242 379.225 490.158 377.291C490.748 376.047 502.942 368.23 495.379 351.061C493.968 347.858 495.591 344.638 496.332 341.413C505.533 301.365 503.951 256.471 491.311 218.262C484.686 198.24 479.454 186.923 469.344 169.462L460.027 154.677L472.118 143.379C478.051 137.761 503.145 114.792 507.256 109.591C511.053 104.786 511.462 99.2262 511.46 90.9639V23.7759C511.46 14.8203 513.554 2.44856 500.779 0.231374C491.148 -1.4402 485.459 6.28172 478.726 12.6257C470.584 20.2972 462.893 27.543 454.751 35.2146C446.712 42.7888 439.123 49.939 431.085 57.5132C428.18 60.25 410.422 79.0925 406.938 79.9579H406.935Z"
          fill="white"/>
    <path fill-rule="evenodd" clip-rule="evenodd"
          d="M421.827 180.607C427.673 176.082 488 118.479 494.957 111.905C504.15 103.217 504.08 102.684 504.08 86.3296L504.084 17.4041C504.095 14.7525 504.971 5.58317 496.919 7.1418C494.081 7.69262 488.932 13.319 486.96 15.1747C438.225 61.0927 389.415 106.938 340.577 152.953L313.22 178.725C310.072 181.698 307.342 183.662 306.16 189.411C304.965 195.225 305.819 292.608 305.784 309.322C305.771 315.306 305.867 322.564 312.594 315.985C324.569 304.277 336.955 293.257 349.265 281.614C355.445 275.768 361.115 270.278 367.282 264.418C369.328 262.474 373.794 256.804 377.802 257.463C380.089 257.838 382.023 259.537 382.309 261.915C382.689 265.065 380.942 266.366 379.432 267.756L324.707 319.294C318.54 325.104 312.604 331.135 306.276 336.675C302.676 339.827 296.113 340.664 295.51 334.258L295.493 282.1C295.493 236.151 295.484 190.2 295.493 144.251C295.493 138.442 296.71 133.076 291.395 131.48C286.48 130.004 282.608 135.391 280.448 137.426L225.467 189.3C215.713 198.468 217.605 200.461 217.605 216.07V422.844C217.605 435.571 217.028 442.575 223.455 452.097C235.925 470.568 265.953 475.549 284.319 456.733L293.791 448.302C295.458 446.79 297.055 445.756 298.796 444.3C306.224 438.092 319.995 425.135 327.154 419.489C343.394 406.68 373.579 376.928 387.412 363.894C414.778 338.11 435.918 321.426 448.372 283.469C458.772 251.777 453.475 215.501 428.434 191.785C422.799 186.449 421.179 186.443 421.823 180.609L421.827 180.607Z"
          fill="#20BEC6"/>
    <path fill-rule="evenodd" clip-rule="evenodd" d="M131.712 131.4C126.1 133.509 127.785 137.999 127.785 148.882V382.299C127.785 385.305 127.066 389.787 128.37 392.261C129.349 394.117 132.667 395.787 135.957 394.591C137.69 393.96 201.258 334.666 203.99 331.238C208.558 325.506 207.855 321.58 207.853 313.374L207.861 207.376C207.868 199.399 205.495 195.851 201.389 191.967L144.986 139.118C142.465 136.793 136.903 129.447 131.712 131.398V131.4Z" fill="#20BEC6"/>
    <path fill-rule="evenodd" clip-rule="evenodd" d="M103.273 528.291C118.836 528.289 119.327 525.266 129.075 516.081L180.213 468.114C185.991 462.663 191.419 457.722 197.165 452.229C198.672 450.787 199.666 449.266 201.187 447.909C207.565 442.217 207.314 439.946 207.367 429.795L207.581 355.657C207.581 350.918 206.145 347.813 200.509 348.736C196.376 349.412 169.417 376.989 163.034 383.001C157.863 387.873 153.107 392.283 147.936 397.156C108.949 433.889 67.9528 472.851 28.6823 508.946C22.7126 514.434 14.8138 519.844 16.8535 525.094C18.3768 529.014 23.6863 528.268 28.2765 528.263L103.275 528.289L103.273 528.291Z" fill="#20BEC6"/>
    <path fill-rule="evenodd" clip-rule="evenodd"
          d="M68.8479 461.119L80.4866 450.658C79.8338 448.902 78.9708 448.078 77.7628 446.874C76.1196 445.235 75.7932 444.674 74.3879 443.108C39.1525 403.899 18.4513 349.191 16.7159 296.58C12.9297 181.75 93.9623 77.6416 215.123 55.0719C248.324 48.8877 285.245 50.144 317.249 57.925C342.952 64.1734 364.579 73.2003 386.228 86.1489C388.913 87.7562 392.748 90.5676 395.272 91.5563C397.602 90.0394 399.21 88.1194 401.266 86.1819C403.237 84.3262 406.201 82.6355 406.935 79.9561L388.628 68.8424C381.972 65.0544 375.807 62.1231 368.636 58.7174C365.297 57.1309 361.916 55.7148 358.479 54.3873C329.973 43.3778 302.789 36.9348 271.716 35.3536C207.923 32.1077 147.396 53.0893 100.122 88.5659C98.7462 89.5981 97.3446 90.552 96.0536 91.6832L61.5541 124.626C52.7314 135.149 43.5491 146.663 36.6739 158.525C32.9836 164.894 29.6475 170.332 26.2209 177.059C16.2032 196.723 8.3893 220.626 4.04251 242.464C0.13648 262.095 1.87448e-07 276.135 1.87448e-07 295.996C-0.00184402 338.703 13.6047 377.234 30.9347 409.911L42.2213 428.238C45.9521 434.191 50.5018 439.946 54.8006 445.346C56.8292 447.894 66.1646 459.289 68.8516 461.115L68.8479 461.119Z"
          fill="#002D61"/>
    <path fill-rule="evenodd" clip-rule="evenodd" d="M459.819 449.944C464.939 447.381 481.71 419.884 486.608 412.176C490.289 406.381 496.716 392.409 499.425 386.025C504.687 373.627 508.678 361.658 512.202 347.671C524.918 297.183 519.177 238.459 500.13 193.729L491.997 175.908C487.314 167.158 482.931 159.399 477.529 151.313C475.598 148.421 474.106 146.326 472.116 143.377L460.026 154.675L469.343 169.46C479.454 186.921 484.686 198.238 491.309 218.261C503.949 256.469 505.531 301.363 496.331 341.412C495.589 344.637 493.968 347.858 495.377 351.059C502.94 368.228 490.746 376.046 490.156 377.29C489.24 379.224 488.327 384.153 487.622 386.464C484.627 396.285 475.322 420.431 469.383 427.239C467.421 429.487 465.852 431.324 463.592 433.348C461.606 435.128 459.266 437.011 457.65 439.063C459.048 442.288 458.851 447.732 459.817 449.944H459.819Z" fill="#002D61"/>
    <path fill-rule="evenodd" clip-rule="evenodd"
          d="M472.729 362.218C459.792 362.259 438.715 354.404 435.091 368.878C433.82 373.955 433.798 384.784 434.672 390.339C435.731 397.067 438.764 403.573 447.408 401.291C450.368 396.084 444.795 383.015 446.731 375.608C448.491 368.873 463.503 371.889 470.131 373.137C468.919 382.214 460.159 403.02 455.265 412.188C454.387 413.833 452.945 416.089 451.606 417.416C450.263 418.747 447.231 420.728 445.682 421.055C441.994 412.811 437.796 404.709 431.874 400.514C422.417 393.816 413.941 398.871 411.446 408.54C409.434 416.342 412.116 430.636 415.184 437.068C416.995 440.865 419.856 444.382 423.159 446.382C428.767 449.781 432.288 447.546 437.466 446.827C442.421 465.746 436.762 491.798 438.145 496.581C439.382 500.861 445.835 504.416 449.671 500.767C454.287 496.376 454.53 460.768 453.599 451.8C453.044 446.455 451.615 441.828 450.752 436.829C458.649 430.627 464.644 424.514 469.137 415.378C473.677 406.143 477.354 397.847 480.659 387.446C481.478 384.873 484.244 373.98 485.366 372.737C487.269 370.629 488.554 371.569 490.264 367.552C491.398 364.887 491.579 361.754 491.138 358.572C490.413 353.34 487.057 347.849 480.324 349.488C474.216 350.977 475.578 357.474 472.727 362.216L472.729 362.218Z"
          fill="#FCA600"/>
    <path fill-rule="evenodd" clip-rule="evenodd" d="M140.97 514.937L159.473 523.38C181.928 532.216 198.867 537.066 224.802 540.598C230.498 541.375 244.35 542.777 250.187 542.744L271.115 542.756C274.206 542.67 274.51 542.199 277.854 542.155C298.044 541.893 320.009 535.08 325.82 534.63L325.32 518.241C307.361 521.405 304.412 524.06 281.568 526.004C265.452 527.375 248.9 527.349 232.889 525.58C211.466 523.215 190.529 518.248 171.036 510.745C166.547 509.017 156.385 503.996 153.057 503.341L140.97 514.937Z" fill="#002D61"/>
    <path fill-rule="evenodd" clip-rule="evenodd" d="M347.325 535.742C339.271 509.481 352.431 472.602 366.396 486.55C369.101 489.252 372.493 492.025 375.567 494.117C386.737 501.716 390.796 493.904 396.866 488.067C402.214 482.922 406.258 476.721 408.327 466.98C410.651 456.041 408.226 448.742 403.781 440.311C401.185 435.388 394.454 420.961 385.71 428.332C376.364 436.212 407.079 452.896 389.911 474.555C386.595 478.738 384.102 481.88 380.847 479.933C376.153 477.129 367.392 460.716 347.091 475.904C342.087 479.648 337.296 488.208 334.906 496.295C330.64 510.727 328.348 540.122 339.363 549.085C351.397 558.874 369.843 539.594 359.301 532.624C353.507 528.793 348.701 535.264 347.327 535.742H347.325Z" fill="#FCA600"/>
    <path fill-rule="evenodd" clip-rule="evenodd" d="M355.313 525.219C356.962 524.15 360.901 522.625 363.129 521.723L379.26 514.334C380.909 513.431 385.411 510.793 387.15 510.305C391.141 503.683 393.003 502.382 402.648 500.932C416.825 491.092 420.43 488.26 432.561 478.449C433.01 474.022 433.858 459.699 432.156 456.601C429.275 458.764 426.029 462.415 422.887 465.077L413.474 473.018C411.403 475.801 412.192 480.079 403.893 489.476C400.657 493.141 394.563 499.761 389.822 501.707C376.996 506.977 377.219 497.17 369.495 501.082C364.601 503.56 356.471 507.575 351.689 509.162C351.398 514.8 350.627 520.439 351.652 526.042L355.315 525.217L355.313 525.219Z" fill="#002D61"/>
    <path fill-rule="evenodd" clip-rule="evenodd" d="M387.151 510.305C387.182 515.653 384.842 518.792 393.537 524.102C411.999 535.377 430.004 505.056 402.647 500.931C393.004 502.382 391.141 503.681 387.149 510.303L387.151 510.305Z" fill="white"/>
    <path fill-rule="evenodd" clip-rule="evenodd" d="M435.679 331.924C423.528 335.207 432.824 346.272 440.463 343.827C442.991 343.019 446.752 338.609 445.678 334.949C444.819 332.022 439.34 330.936 435.679 331.924Z" fill="#FCA600"/>
    <path fill-rule="evenodd" clip-rule="evenodd" d="M399.409 508.001C387.257 511.283 396.554 522.348 404.192 519.903C406.719 519.095 410.481 514.685 409.408 511.026C408.548 508.098 403.069 507.012 399.409 508.001Z" fill="#FCA600"/>
    <path fill-rule="evenodd" clip-rule="evenodd" d="M433.035 432.916C434.647 428.615 427.73 416.643 425.519 415.166C425.731 420.53 425.338 434.975 433.035 432.916Z" fill="white"/>
  </g>
</svg>
