<svg width="160" height="160" viewBox="0 0 160 160" fill="none" xmlns="http://www.w3.org/2000/svg">
  <circle opacity="0.2" cx="80.4627" cy="79.1848" r="45.3397" fill="#FF9860"/>
  <path d="M0.546742 89.15C1.76921 99.541 5.0225 109.59 10.1216 118.726L18.4403 114.083C13.9498 106.038 11.0848 97.1877 10.0082 88.0369L0.546742 89.15Z" fill="#EBECF0"/>
  <path d="M3.99452 54.8883C0.726234 64.8274 -0.556254 75.312 0.220005 85.7458L9.72049 85.0389C9.03687 75.8504 10.1663 66.6171 13.0445 57.8643L3.99452 54.8883Z" fill="#FF9860" fill-opacity="0.4"/>
  <path opacity="0.7" d="M19.5605 27.4769C13.1881 34.813 8.20879 43.2509 4.86746 52.3756L13.8133 55.6514C16.7558 47.6157 21.1409 40.1848 26.7527 33.7243L19.5605 27.4769Z" fill="#FF9860"/>
  <path d="M46.3367 7.36364C37.5245 11.4361 29.529 17.0819 22.7429 24.0238L29.5553 30.6834C35.5315 24.57 42.5727 19.598 50.3332 16.0115L46.3367 7.36364Z" fill="#FF9860"/>
  <path opacity="0.7" d="M78.2944 0.0146445C68.5884 0.20059 58.9978 2.15546 49.9933 5.78326L53.5535 14.6198C61.4832 11.4249 69.9293 9.70339 78.4769 9.53964L78.2944 0.0146445Z" fill="#FF9860"/>
  <path d="M110.953 6.32005C102.014 2.53424 92.4587 0.410786 82.7575 0.0539457L82.4074 9.57425C90.9507 9.8885 99.3652 11.7585 107.237 15.0925L110.953 6.32005Z" fill="#FF9860" fill-opacity="0.4"/>
  <path d="M137.939 25.1028C131.284 18.035 123.396 12.2405 114.661 8.00361L110.504 16.5751C118.196 20.3063 125.142 25.4093 131.003 31.6336L137.939 25.1028Z" fill="#EBECF0"/>
  <path d="M155.049 53.1248C151.802 43.9761 146.914 35.4965 140.624 28.1022L133.367 34.275C138.907 40.7868 143.212 48.2544 146.071 56.3112L155.049 53.1248Z" fill="#EBECF0"/>
  <path d="M159.438 85.5906C160.14 75.9082 159.069 66.1791 156.279 56.8809L147.154 59.619C149.611 67.8075 150.554 76.3755 149.936 84.9023L159.438 85.5906Z" fill="#EBECF0"/>
  <path d="M150.418 117.081C154.949 108.496 157.876 99.1558 159.056 89.5199L149.599 88.3627C148.561 96.8485 145.983 105.074 141.993 112.635L150.418 117.081Z" fill="#EBECF0"/>
</svg>
