<svg width="524" height="576" viewBox="0 0 524 576" fill="none" xmlns="http://www.w3.org/2000/svg">
  <g opacity="0.91">
    <path d="M81.3574 256.889L247.438 309.977V522.009L81.3574 469.599V256.889Z" fill="#ACBFC7"/>
    <path d="M247.581 309.371L165.06 364.164L0 309.371L82.0206 255.938L247.581 309.371Z" fill="#CDD9DD"/>
    <path d="M0 203.185L166.761 150.434L247.416 203.185L83.0367 256.272L0 203.185Z" fill="#CDD9DD"/>
    <path d="M247.582 203.358L413.108 256.674L495.311 203.358L328.285 150.126L247.582 203.358Z" fill="#CDD9DD"/>
    <path d="M247.42 522.347L412.609 469.692V256.438L247.42 309.532V522.347Z" fill="#88A5B0"/>
    <path d="M82.8027 256.677L247.53 203.4V308.722L82.8027 256.677Z" fill="#6D919E"/>
    <path d="M412.609 256.435L248.178 309.03V203.266L412.609 256.435Z" fill="#88A5B0"/>
    <path d="M336.896 247.42L305.924 236.756C301.811 235.339 297.328 237.526 295.912 241.639L295.776 242.033C294.36 246.146 296.546 250.629 300.659 252.045L331.631 262.71C335.744 264.126 340.227 261.94 341.643 257.827L341.779 257.432C343.195 253.319 341.009 248.836 336.896 247.42Z" fill="white"/>
    <path d="M413.067 256.675L248.338 309.324L329.092 364.702L494.824 309.134L413.067 256.675Z" fill="#CDD9DD"/>
    <path d="M375.372 403.347C380.73 403.347 385.074 398.28 385.074 392.029C385.074 385.778 380.73 380.71 375.372 380.71C370.014 380.71 365.67 385.778 365.67 392.029C365.67 398.28 370.014 403.347 375.372 403.347Z" fill="#456E7B"/>
    <path d="M284.823 430.836C290.182 430.836 294.525 425.768 294.525 419.517C294.525 413.266 290.182 408.199 284.823 408.199C279.465 408.199 275.121 413.266 275.121 419.517C275.121 425.768 279.465 430.836 284.823 430.836Z" fill="#456E7B"/>
    <path d="M317.818 447.852C317.818 447.852 317.76 413.638 343.128 414.737C358.16 415.26 360.712 432.95 360.712 432.95" stroke="#456E7B" stroke-width="3" stroke-linecap="round"/>
    <g style="mix-blend-mode:luminosity">
      <path d="M247.421 268.175C247.421 268.175 202.159 233.119 233.809 206.582C265.46 180.044 300.855 170.508 300.855 143.961C300.855 117.414 278.733 111.291 278.733 111.291C278.733 111.291 252.869 111.63 253.214 131.029C253.559 150.429 267.508 162.339 268.869 163.701C270.23 165.064 286.907 178.676 308.007 181.399C329.106 184.121 380.837 183.779 389.687 136.818C398.537 89.8575 374.37 64.6706 374.37 64.6706C374.37 64.6706 359.397 50.3774 351.568 43.2319" stroke="#FFA000" stroke-width="2" stroke-linecap="round" stroke-dasharray="5 5"/>
    </g>
    <g style="mix-blend-mode:luminosity">
      <path d="M360.975 25.8892L308.926 5.59668L343.625 33.1642L360.975 25.8892Z" fill="#FFA000"/>
    </g>
    <g style="mix-blend-mode:luminosity">
      <path d="M339.591 52.4176L308.92 5.73427L343.098 33.9357L339.591 52.4176Z" fill="#EC9605"/>
    </g>
    <path d="M466.507 502.081L456.77 491.267L447.156 499.923L456.894 510.737L466.507 502.081Z" fill="#88A5B0"/>
    <path d="M468.737 501.689L518.019 556.422C519.606 558.183 520.427 560.503 520.303 562.87C520.179 565.238 519.12 567.459 517.358 569.045C515.596 570.631 513.277 571.453 510.909 571.328C508.542 571.204 506.321 570.145 504.735 568.383L455.453 513.65C455.322 513.504 455.22 513.334 455.155 513.15C455.09 512.965 455.062 512.769 455.072 512.573C455.083 512.378 455.131 512.186 455.216 512.009C455.301 511.833 455.419 511.674 455.565 511.543L466.633 501.578C466.927 501.314 467.313 501.177 467.708 501.197C468.103 501.218 468.473 501.395 468.737 501.689Z" fill="#88A5B0"/>
    <path d="M419.032 506.835C443.144 506.835 462.691 487.288 462.691 463.176C462.691 439.064 443.144 419.517 419.032 419.517C394.92 419.517 375.373 439.064 375.373 463.176C375.373 487.288 394.92 506.835 419.032 506.835Z" fill="#E5E8E9"/>
    <path d="M385.075 492.35C388.856 490.991 433.436 473.631 433.436 473.631V424.625L412.335 419.52L390.214 431.094L379.659 453.216L377.611 473.633L385.075 492.35Z" fill="#A4BAC2"/>
    <path d="M444.638 434.074L404.359 498.521L411.215 502.805L451.494 438.359L444.638 434.074Z" fill="white"/>
    <path d="M454.341 438.925L414.062 503.371L425.032 510.227L465.311 445.781L454.341 438.925Z" fill="white"/>
    <path d="M419.032 506.835C443.144 506.835 462.691 487.288 462.691 463.176C462.691 439.064 443.144 419.517 419.032 419.517C394.92 419.517 375.373 439.064 375.373 463.176C375.373 487.288 394.92 506.835 419.032 506.835Z" stroke="#CDD9DD" stroke-width="7"/>
    <g style="mix-blend-mode:luminosity">
      <path d="M237.928 31.3581C231.641 31.3581 226.526 36.4732 226.526 42.7604C226.526 49.0477 231.641 54.1628 237.928 54.1628C244.215 54.1628 249.33 49.0477 249.33 42.7604C249.33 36.4732 244.215 31.3581 237.928 31.3581ZM237.928 28.2075C245.965 28.2075 252.481 34.7231 252.481 42.7604C252.481 50.7978 245.965 57.3134 237.928 57.3134C229.891 57.3134 223.375 50.7978 223.375 42.7604C223.375 34.7231 229.891 28.2075 237.928 28.2075Z" fill="#FFA000"/>
    </g>
    <g style="mix-blend-mode:luminosity">
      <path d="M206.398 130.118C211.333 130.118 215.333 126.118 215.333 121.183C215.333 116.248 211.333 112.248 206.398 112.248C201.463 112.248 197.463 116.248 197.463 121.183C197.463 126.118 201.463 130.118 206.398 130.118Z" stroke="#FFA000" stroke-width="2"/>
    </g>
    <g style="mix-blend-mode:luminosity">
      <path d="M416.607 155.161C419.298 155.161 421.479 152.979 421.479 150.288C421.479 147.597 419.298 145.416 416.607 145.416C413.916 145.416 411.734 147.597 411.734 150.288C411.734 152.979 413.916 155.161 416.607 155.161Z" stroke="#FFA000"/>
    </g>
  </g>
</svg>
